<svg height="317.328" viewbox="0 0 317.328 317.328" width="317.328" xmlns="http://www.w3.org/2000/svg" xmlns:xlink="http://www.w3.org/1999/xlink">
<g>
<path d="m297.843,300.805c-1.104,4.584-5.195,7.904-9.965,7.904h-255.39c-5.706,0-10.333-4.627-10.333-10.333s4.627-10.333,10.333-10.333h245.723c4.584,0,8.675,3.32,9.965,7.904l9.633,39.964c1.104,4.584-1.104,9.281-5.706,11.231-4.584,1.95-9.745,0-11.847-4.584l-2.316-9.633c-1.289-5.706-6.471-9.745-12.289-9.745h-230.166c-8.454,0-15.332,6.878-15.332,15.332s6.878,15.332,15.332,15.332h240.451c5.706,0,10.333,4.627,10.333,10.333s-4.627,10.333-10.333,10.333h-22.617c-3.32,0-6.471-1.95-8.006-4.806l-3.212-6.193c-3.32-6.471-10.443-10.548-17.916-10.548h-188.58c-12.394,0-22.473,10.079-22.473,22.473s10.079,22.473,22.473,22.473h194.582c6.471,0,12.506-3.212,16.171-8.454l19.344-27.68c2.208-3.212,3.32-7.077,3.212-11.059l-.316-9.745c-.104-2.768-1.392-5.348-3.532-7.077s-5.021-2.659-7.904-2.208h-6.878z" fill="#0E97DB"></path>
<g>
<path d="m187.471,65.328c-4.584,0-8.675-3.32-9.965-7.904l-9.633-39.964c-1.104-4.584,1.104-9.281,5.706-11.231,4.584-1.95,9.745,0,11.847,4.584l2.316,9.633c1.289,5.706,6.471,9.745,12.289,9.745h6.471c3.32,0,6.471,1.95,8.006,4.806l3.212,6.193c3.32,6.471,10.443,10.548,17.916,10.548h38.688c12.394,0,22.473-10.079,22.473-22.473s-10.079-22.473-22.473-22.473h-4.806c-6.471,0-12.506,3.212-16.171,8.454l-19.344,27.68c-2.208,3.212-3.32,7.077-3.212,11.059l.316,9.745c.104,2.768,1.392,5.348,3.532,7.077s5.021,2.659,7.904,2.208h6.878c4.584,0,8.675,3.32,9.965,7.904l9.633,39.964c1.104,4.584-1.104,9.281-5.706,11.231-4.584,1.95-9.745,0-11.847-4.584l-2.316-9.633c-1.289-5.706-6.471-9.745-12.289-9.745h-22.617c-5.706,0-10.333-4.627-10.333-10.333s4.627-10.333,10.333-10.333h245.723c8.454,0,15.332-6.878,15.332-15.332s-6.878-15.332-15.332-15.332h-240.451c-5.706,0-10.333-4.627-10.333-10.333s4.627-10.333,10.333-10.333h255.39c4.77,0,8.861-3.32,9.965-7.904s-1.104-9.281-5.706-11.231l-39.964-17.916c-4.584-1.95-9.745,0-11.847,4.584s0,9.745,4.584,11.847l12.289,5.706c0,8.454-6.878,15.332-15.332,15.332h-238.51c-3.32,0-6.471-1.95-8.006-4.806l-3.212-6.193c-3.32-6.471-10.443-10.548-17.916-10.548h-38.688c-12.394,0-22.473,10.079-22.473,22.473s10.079,22.473,22.473,22.473h4.806c6.471,0,12.506-3.212,16.171-8.454l19.344-27.68c2.208-3.212,3.32-7.077,3.212-11.059l-.316-9.745c-.104-2.768-1.392-5.348-3.532-7.077s-5.021-2.659-7.904-2.208h-6.878z" fill="#E90C74"></path>
</g>
</g>
</svg>